<?xml version="1.0" encoding="UTF-8" standalone="no"?>
<svg
   xmlns:dc="http://purl.org/dc/elements/1.1/"
   xmlns:cc="http://creativecommons.org/ns#"
   xmlns:rdf="http://www.w3.org/1999/02/22-rdf-syntax-ns#"
   xmlns:svg="http://www.w3.org/2000/svg"
   xmlns="http://www.w3.org/2000/svg"
   id="svg2032"
   version="1.1"
   viewBox="0 0 22.077782 26.462351"
   height="26.462351mm"
   width="22.077782mm">
  <defs
     id="defs2026">
    <clipPath
       id="clipPath36"
       clipPathUnits="userSpaceOnUse">
      <path
         id="path34"
         d="M 0,500 H 500 V 0 H 0 Z" />
    </clipPath>
    <clipPath
       id="clipPath68"
       clipPathUnits="userSpaceOnUse">
      <path
         id="path66"
         d="M 0,500 H 500 V 0 H 0 Z" />
    </clipPath>
    <clipPath
       id="clipPath128"
       clipPathUnits="userSpaceOnUse">
      <path
         id="path126"
         d="M 0,500 H 500 V 0 H 0 Z" />
    </clipPath>
    <clipPath
       id="clipPath200"
       clipPathUnits="userSpaceOnUse">
      <path
         id="path198"
         d="M 0,500 H 500 V 0 H 0 Z" />
    </clipPath>
    <clipPath
       id="clipPath238"
       clipPathUnits="userSpaceOnUse">
      <path
         id="path236"
         d="M 0,500 H 500 V 0 H 0 Z" />
    </clipPath>
    <clipPath
       id="clipPath322"
       clipPathUnits="userSpaceOnUse">
      <path
         id="path320"
         d="M 0,500 H 500 V 0 H 0 Z" />
    </clipPath>
    <clipPath
       id="clipPath366"
       clipPathUnits="userSpaceOnUse">
      <path
         id="path364"
         d="M 0,500 H 500 V 0 H 0 Z" />
    </clipPath>
  </defs>
  <metadata
     id="metadata2029">
    <rdf:RDF>
      <cc:Work
         rdf:about="">
        <dc:format>image/svg+xml</dc:format>
        <dc:type
           rdf:resource="http://purl.org/dc/dcmitype/StillImage" />
        <dc:title></dc:title>
      </cc:Work>
    </rdf:RDF>
  </metadata>
  <g
     transform="translate(-207.2234,-96.163377)"
     id="layer1">
    <g
       id="g3508"
       transform="matrix(0.35277777,0,0,-0.35277777,161.3543,214.51843)">
      <g
         id="g352"
         transform="translate(144.1172,288.3047)">
        <path
           d="M 0,0 -5.986,1.551 -8.333,7.875 -5.99,8.745 -4.096,3.644 0.627,2.42 Z"
           style="fill:#6fb893;fill-opacity:1;fill-rule:nonzero;stroke:none"
           id="path354" />
      </g>
      <g
         id="g356"
         transform="translate(134.5903,286.5317)">
        <path
           d="M 0,0 -1.353,2.103 1.392,3.867 -1.733,5.225 -0.737,7.518 6.68,4.295 Z"
           style="fill:#6fb893;fill-opacity:1;fill-rule:nonzero;stroke:none"
           id="path358" />
      </g>
      <g
         id="g360">
        <g
           id="g362"
           clip-path="url(#clipPath366)">
          <g
             id="g368"
             transform="translate(160.6045,267.6426)">
            <path
               d="m 0,0 c -1.812,0 -3.659,0.669 -5.5,1.994 l 1.461,2.029 C -2.48,2.901 -0.986,2.396 0.427,2.519 l 0.22,-2.49 C 0.432,0.01 0.216,0 0,0"
               style="fill:#e2493c;fill-opacity:1;fill-rule:nonzero;stroke:none"
               id="path370" />
          </g>
          <g
             id="g372"
             transform="translate(152.8691,271.0547)">
            <path
               d="m 0,0 c -2.719,2.148 -4.544,5.169 -5.597,7.326 l 2.246,1.096 C -2.412,6.5 -0.799,3.818 1.55,1.961 Z"
               style="fill:#e2493c;fill-opacity:1;fill-rule:nonzero;stroke:none"
               id="path374" />
          </g>
          <path
             d="M 180.525,318.308 H 144.43 v 2.5 h 36.095 z"
             style="fill:#e2493c;fill-opacity:1;fill-rule:nonzero;stroke:none"
             id="path376" />
          <g
             id="g378"
             transform="translate(148.9639,318.936)">
            <path
               d="m 0,0 -2.169,1.243 7.152,12.481 h 17.42 L 29.445,1.235 27.268,0.008 20.943,11.224 H 6.432 Z"
               style="fill:#e2493c;fill-opacity:1;fill-rule:nonzero;stroke:none"
               id="path380" />
          </g>
          <g
             id="g382"
             transform="translate(161.9102,297.9175)">
            <path
               d="m 0,0 c -7.502,0 -13.606,6.104 -13.606,13.606 0,3.246 1.161,6.388 3.27,8.85 l 1.898,-1.627 C -10.159,18.82 -11.106,16.255 -11.106,13.606 -11.106,7.482 -6.124,2.5 0,2.5 c 6.125,0 11.107,4.982 11.107,11.106 0,2.65 -0.948,5.216 -2.67,7.225 l 1.898,1.627 c 2.11,-2.462 3.272,-5.605 3.272,-8.852 C 13.607,6.104 7.503,0 0,0"
               style="fill:#e2493c;fill-opacity:1;fill-rule:nonzero;stroke:none"
               id="path384" />
          </g>
          <g
             id="g386"
             transform="translate(161.9102,263.3179)">
            <path
               d="m 0,0 c -10.954,0 -19.865,8.912 -19.865,19.865 0,8.462 5.369,16.007 13.36,18.775 l 0.818,-2.362 C -12.672,33.858 -17.365,27.262 -17.365,19.865 -17.365,10.29 -9.575,2.5 0,2.5 c 9.575,0 17.365,7.79 17.365,17.365 0,7.396 -4.692,13.991 -11.676,16.412 L 6.508,38.64 C 14.498,35.87 19.865,28.325 19.865,19.865 19.865,8.912 10.954,0 0,0"
               style="fill:#e2493c;fill-opacity:1;fill-rule:nonzero;stroke:none"
               id="path388" />
          </g>
          <g
             id="g390"
             transform="translate(148.373,304.332)">
            <path
               d="M 0,0 -0.987,2.297 10.845,7.383 11.832,5.086 Z"
               style="fill:#6fb893;fill-opacity:1;fill-rule:nonzero;stroke:none"
               id="path392" />
          </g>
          <path
             d="m 156.649,314.105 h -2.5 v 2.764 h 2.5 z"
             style="fill:#6fb893;fill-opacity:1;fill-rule:nonzero;stroke:none"
             id="path394" />
          <path
             d="m 167.596,314.105 h -2.5 v 2.764 h 2.5 z"
             style="fill:#6fb893;fill-opacity:1;fill-rule:nonzero;stroke:none"
             id="path396" />
          <g
             id="g398"
             transform="translate(161.9209,302.5635)">
            <path
               d="m 0,0 c -2.332,0 -4.268,1.079 -5.267,1.997 l 1.686,1.845 c 0.343,-0.309 3.464,-2.924 7.23,0.055 L 5.2,1.937 C 3.397,0.511 1.605,0 0,0"
               style="fill:#6fb893;fill-opacity:1;fill-rule:nonzero;stroke:none"
               id="path400" />
          </g>
          <g
             id="g402"
             transform="translate(173.3857,288.1021)">
            <path
               d="M 0,0 -1.078,2.256 9.094,7.115 9.978,12.484 12.445,12.078 11.349,5.422 Z"
               style="fill:#6fb893;fill-opacity:1;fill-rule:nonzero;stroke:none"
               id="path404" />
          </g>
          <g
             id="g406"
             transform="translate(188.8447,290.9375)">
            <path
               d="M 0,0 -7.377,2.94 -0.712,7.521 0.704,5.46 -2.104,3.53 0.926,2.322 Z"
               style="fill:#6fb893;fill-opacity:1;fill-rule:nonzero;stroke:none"
               id="path408" />
          </g>
          <g
             id="g410"
             transform="translate(175.2446,284.707)">
            <path
               d="M 0,0 C -4.406,2.467 -4.232,7.161 -3.524,9.298 L -1.151,8.512 -2.338,8.905 -1.149,8.517 C -1.205,8.344 -2.469,4.248 1.222,2.182 Z"
               style="fill:#6fb893;fill-opacity:1;fill-rule:nonzero;stroke:none"
               id="path412" />
          </g>
          <path
             d="m 174.413,323.464 h -23.578 v 2.5 h 23.578 z"
             style="fill:#e2493c;fill-opacity:1;fill-rule:nonzero;stroke:none"
             id="path414" />
        </g>
      </g>
    </g>
  </g>
</svg>
